# xmcd
#
# Track frame offsets:
#	150
#	21289
#	41322
#	53922
#	71675
#	83684
#	109617
#	133404
#	157413
#	171776
#	191447
#	215608
#	236083
#
# Disc length: 3451 seconds
#
# Revision: 0
# Processed by: cddbd v1.5.2PL0 Copyright (c) Steve Scherf et al.
# Submitted via: audiograbber 1.83.01
#
DISCID=b90d790d
DTITLE=Steve Earle And The Dukes - AVO Session 2011
DYEAR=2011
DGENRE=Country
TTITLE0=Gulf of Mexico
TTITLE1=City of Immigrants
TTITLE2=My Old Friend The Blues
TTITLE3=Someday
TTITLE4=Guitar Town
TTITLE5=Devil's Right Hand
TTITLE6=Heaven or Hell
TTITLE7=A Change is Gonna Come
TTITLE8=Little Emperor
TTITLE9=The Galway Girl
TTITLE10=This City
TTITLE11=The Revolution Starts Now
TTITLE12=Copperhead Road
EXTD=
EXTT0=
EXTT1=
EXTT2=
EXTT3=
EXTT4=
EXTT5=
EXTT6=
EXTT7=
EXTT8=
EXTT9=
EXTT10=
EXTT11=
EXTT12=
PLAYORDER=
